PathFileType	4	(X/Y/Z)	Patient4_TMGait_0pt5_01_left_22.trc.trc
DataRate	CameraRate	NumFrames	NumMarkers	Units	OrigDataRate	OrigDataStartFrame	OrigNumFrames
72.916666666667	72.916666666667	7	33	mm	72.916666666667	1	       141
Frame#	Time	L.ASIS			Sacral			L.Shoulder			Chest			R.Shoulder			Neck			R.ASIS			R.Thigh.Superior			R.Thigh.Lateral			R.Thigh.Inferior			R.Patella			L.Thigh.Superior			L.Thigh.Lateral			L.Thigh.Inferior			L.Patella			L.Shank.Superior			L.Shank.Lateral			L.Shank.Inferior			R.Shank.Superior			R.Shank.Lateral			R.Shank.Inferior			R.Heel			R.Midfoot.Superior			R.Midfoot.Lateral			R.Toe			L.Heel			L.Midfoot.Lateral			L.Midfoot.Superior			L.Toe			L.Elbow			L.Wrist			R.Elbow			R.Wrist			
		X1	Y1	Z1	X2	Y2	Z2	X3	Y3	Z3	X4	Y4	Z4	X5	Y5	Z5	X6	Y6	Z6	X7	Y7	Z7	X8	Y8	Z8	X9	Y9	Z9	X10	Y10	Z10	X11	Y11	Z11	X12	Y12	Z12	X13	Y13	Z13	X14	Y14	Z14	X15	Y15	Z15	X16	Y16	Z16	X17	Y17	Z17	X18	Y18	Z18	X19	Y19	Z19	X20	Y20	Z20	X21	Y21	Z21	X22	Y22	Z22	X23	Y23	Z23	X24	Y24	Z24	X25	Y25	Z25	X26	Y26	Z26	X27	Y27	Z27	X28	Y28	Z28	X29	Y29	Z29	X30	Y30	Z30	X31	Y31	Z31	X32	Y32	Z32	X33	Y33	Z33	

1	29.420000000000	935.248297931154	970.597530829982	365.828701812509	726.233157168199	1014.311717493775	528.337244444101	897.003922300876	1446.618151321832	360.262998851492	1005.641210816763	1369.167708655328	514.510999460806	929.639380550469	1436.431074029685	695.652106618581	905.126275015019	1502.689833089529	513.747315558175	954.669304867361	944.495957370100	639.627832809711	989.715658565800	743.313273352602	611.003540300674	902.410399216078	636.553702709590	664.143867059678	981.786073984570	583.058878728899	586.886060790190	979.482229688079	494.618103177781	590.491346484198	1007.707499341985	779.715696289323	381.147864073371	949.320476222829	656.583279579159	305.345913831195	1054.007406494698	589.007971638254	354.427395520685	1063.871498380383	500.697695539863	346.919390026886	1002.454277289926	432.165681366698	344.979151859733	863.061468496257	375.954050293909	303.910159527738	866.672543583684	246.171833406693	360.273896814064	950.626073218894	407.320245195713	592.998820645176	874.436357138550	303.074033375780	646.659552019452	918.306405303083	209.376851732251	582.830663370247	780.080602475288	46.727106661055	542.747788766023	953.574895195131	98.420620003943	581.754901300812	863.206581853453	37.508964959383	617.474411417271	1071.525619596530	40.454053362101	608.990270766532	684.253153511895	160.121724477641	408.236213650635	742.125171512277	122.954978876711	323.800586988128	847.113843371415	143.102116134214	338.977144936329	936.035011725779	41.703762129848	304.132349125682	854.430819671322	1095.107263508809	236.706630753241	955.250610650272	852.652931556533	223.866815638342	932.035147171006	1086.863675045761	812.274967835507	1095.376422428564	882.604310957382	808.901716341897	
2	29.433714285714	932.846221762735	970.824549312894	365.949517952671	724.730334028372	1014.781641465609	529.378057943190	895.441515277390	1447.095495821274	361.829649316684	1004.941557150591	1368.847861434258	515.037873329722	930.450497398146	1435.810478808796	696.838466734038	904.707986352697	1502.643111517386	515.440891741629	953.252871524379	944.039306062518	639.330997978745	986.004372926291	742.555191265108	610.064839835745	898.271171847224	636.420663055632	664.168156245909	976.550451481857	582.296214193063	586.410141916645	973.419425724866	494.144292961072	590.095153525364	1006.149357354760	781.246393364637	381.504040983106	949.172579883790	657.603962507537	305.497613643274	1053.564028122097	590.794062904019	355.795625888415	1065.218028506748	504.142748859379	347.864519058065	1007.769080936665	434.307942122631	344.820200770631	872.981688566171	370.290891881733	302.960037030551	885.012833734556	241.090081138016	358.121795482886	944.357522563061	406.907501103266	592.717886105351	867.941626017518	302.996465350018	646.687298708944	911.402291084951	209.147495015432	582.706083889901	772.769435277641	46.599684764676	542.740399744933	946.233949182965	98.354331478395	581.770364436619	855.886087727806	37.484043699277	617.506010904905	1064.193763454041	40.409778712519	609.037779638890	709.888093514606	143.446754554237	405.216611875786	769.396802155171	111.290222437271	320.374997889293	872.165957973132	137.901269062908	335.851835720763	966.816631668807	43.575364301392	299.996122315469	845.056934911062	1096.988875080820	238.358264760429	934.073351141372	851.088149187471	225.272208058174	943.228225118416	1087.458669175339	813.868079580058	1116.918058168742	893.827533587955	808.830659007359	
3	29.447428571429	930.480031235655	970.998937917972	366.032929698053	723.230619321819	1015.219747197183	530.375983053416	893.889488949929	1447.542609325007	363.351199600629	1004.235028273100	1368.498859103361	515.529100852623	931.227222197417	1435.147326570044	697.980188013061	904.278938226613	1502.559788637115	517.090458987035	951.844438236847	943.585254211093	639.032844119835	982.321324137223	741.790602517692	609.167496346026	894.151142029035	636.277909490388	664.203003534339	971.351818441888	581.524898935303	585.969984724373	967.393205808382	493.660025654109	589.727383996416	1004.484568937645	782.611991282231	381.892633921906	948.875789137344	658.519147571134	305.627705530516	1052.887316463776	592.400197810718	357.226054560578	1066.337403009600	507.455298110767	348.859678427161	1012.897951070571	436.420067983910	344.698109411885	882.935840884576	364.625688668713	301.964687839838	903.378226387160	236.180938562367	356.014223405040	938.125252581204	406.489795989833	592.459700540228	861.478043224698	302.907366122413	646.727590110190	904.523478153362	208.908107663782	582.589755452724	765.485763977569	46.464000814415	542.743261977564	938.916992787028	98.280334241316	581.772519384021	848.593376035871	37.455888801981	617.541451621264	1056.890259182157	40.364907625466	609.081583253246	735.771111397600	127.043803789457	402.166659668902	796.893527562758	99.924488020184	316.978503313284	897.308399155211	132.979151062279	332.817581092690	997.596541958654	45.838071903494	296.060451586254	835.748751673572	1098.877294802483	239.966303089834	913.113089475644	849.673148503956	226.722665094355	954.296751285565	1088.083566596519	815.389658794754	1138.173793171263	905.183448148796	808.582975087774	
4	29.461142857143	928.188047445389	971.081824862551	366.043866593727	721.746989820411	1015.597635019984	531.285820660975	892.366733524901	1447.932367742994	364.766897217810	1003.517301936619	1368.103428650498	515.942768472194	931.930928671901	1434.421996137795	699.020577671666	903.832265487542	1502.416365908962	518.634231081678	950.458951483604	943.142208275487	638.725307230430	978.715326173972	741.021362739930	608.346377736200	890.085874301664	636.122900227744	664.248601916182	966.245054677844	580.747684030439	585.590933177588	961.464310598057	493.163064104139	589.407887286439	1002.643489273315	783.679544811700	382.318737252959	948.311505779015	659.241715848632	305.713276909538	1051.818293711721	593.682538732547	358.722661316057	1067.051179363901	510.519027721003	349.923505470048	1017.656871815322	438.476315856411	344.634456255201	892.862768319262	359.040327899323	300.911710156934	921.626575143252	231.665199574408	354.002868103065	931.985163437098	406.068477493085	592.238931023036	855.095734387492	302.803826842156	646.785309426416	897.718889571189	208.655511798169	582.488131147627	758.279862842493	46.319729355053	542.763360392159	931.672071038678	98.195325690119	581.755090209546	841.377837071251	37.422813400865	617.583201931840	1049.666288948768	40.319727426128	609.119008158170	761.861990721738	111.346331440723	399.113112211295	824.545051247254	89.236410393791	313.688716782194	922.394696256182	128.629461477223	329.973933501469	1028.095380009102	48.782510379867	292.531955501712	826.624879774563	1100.766185941075	241.483948841635	892.692973038561	848.542998698140	228.241316190816	965.046723795415	1088.762957937486	816.737594136589	1158.723988434745	916.746431113459	807.983767772317	
5	29.474857142857	925.991399281136	971.042273436330	365.954330546602	720.287316019708	1015.893495602181	532.071499630709	890.888335070338	1448.244364220290	366.022457208079	1002.783295194186	1367.649606028098	516.241204743741	932.528850182256	1433.624013450487	699.909562453719	903.363114896361	1502.197166624630	520.016001102972	949.106223753146	942.718396535715	638.398360217900	975.224580555362	740.249808522559	607.632421518857	886.093463231079	635.955878739115	664.302208950536	961.262811893004	579.967508108210	585.292153573423	955.667314464643	492.653135201318	589.150435719172	1000.564374639069	784.349053774157	382.777455014265	947.381114001857	659.707891850158	305.726311332607	1050.243910835380	594.539222576067	360.258653414805	1067.224645760689	513.252973037039	351.057169304098	1021.905174526848	440.471439464671	344.641269249652	902.726914524352	353.622969870107	299.791729212964	939.652191542882	227.751174480077	352.136304845832	925.964291087591	405.644567653777	592.063985894385	848.816606076200	302.686835281520	646.862818489367	891.008379595279	208.389744337703	582.406712434624	751.170178393872	46.169656301325	542.805450286789	924.516051196695	98.096742186119	581.714618690824	834.257462955759	37.384598168383	617.633579430892	1042.540996658929	40.274310598667	609.148785581370	788.135219935542	96.749513873278	396.091590558616	852.312882152446	79.560549887850	310.589534170694	947.325002799514	125.113525275308	327.417154973149	1058.106981414434	52.655868300235	289.616031672461	817.767041626539	1102.653048213804	242.878477847904	873.042643378567	847.802149272819	229.847905944019	975.330986442495	1089.518215451538	817.815284970700	1178.244311954603	928.614613267232	806.877916476642	
6	29.488571428571	923.896266264498	970.862329590881	365.745930523445	718.856741777327	1016.093990451790	532.708293051357	889.466117994570	1448.466554049582	367.072654445270	1002.028659985436	1367.133604539363	516.393706135160	932.996183372400	1432.755821783359	700.606226794261	902.869547323360	1501.897100765877	521.187611439276	947.792101556660	942.321219889494	638.040963281637	971.877568413967	739.479524252786	607.048207232739	882.179744943269	635.780237911179	664.357047601660	956.420427767631	579.188884801385	585.083153406396	950.017247033793	492.132843662722	588.960241139905	998.207958782830	784.566327652087	383.251192556113	946.022203095926	659.884391749226	305.638038695990	1048.118937309618	594.922505262834	361.774226906385	1066.786050230072	515.616529453722	352.240859585659	1025.555031024965	442.416561418167	344.718572100040	912.496916431424	348.471405222858	298.605019388099	957.354311341405	224.617654827592	350.457408874472	920.068464208056	405.219649575231	591.935646707780	842.642478325283	302.561786995345	646.958750708947	884.392149971996	208.114472896356	582.348938657393	744.152678899423	46.020109354349	542.870865547517	917.444774624197	97.983676240866	581.651470380255	827.228624226297	37.342506504732	617.694282248199	1035.511075071022	40.228689019228	609.171270236497	814.515762040754	83.596703622095	393.152116255578	880.123096810239	71.166743535132	307.769340300097	971.996176111941	122.632949388579	325.231969952714	1087.449272784414	57.614742195958	287.493618641212	809.228838909688	1104.535437825128	244.131465111190	854.311852106269	847.513327090114	231.551596552607	985.044098125299	1090.363911763326	818.537858262544	1196.500055299997	940.877381691297	805.148107219240	
7	29.502285714286	921.898380547606	970.539761563552	365.409826709585	717.459794403098	1016.194408457448	533.182770760443	888.108151258745	1448.595173336747	367.882788603914	1001.250260727324	1366.560703040439	516.377762285489	933.316842597866	1431.833427431654	701.079888176968	902.351872428462	1501.521944000241	522.110624334099	946.519697483249	941.956412485453	637.641559259927	968.692753564990	738.714996624826	606.602789614207	878.343548343353	635.601960543961	664.401951000277	951.720749231090	578.418373373774	584.961172330852	944.516225366799	491.607300841682	588.832565292383	995.568715382237	784.327856298546	383.709370171911	944.218619161214	659.769178724913	305.425090657298	1045.474235326838	594.840192374217	363.184406393819	1065.734843209216	517.607826912236	353.436260517777	1028.573912258099	444.331201676818	344.854474459580	922.126495178503	343.689319346315	297.367284021538	974.613348179524	222.395976895489	348.999203768124	914.290186019249	404.796187447643	591.846905583526	836.562755008221	302.437874566045	647.067342560459	877.859189737736	207.836139181257	582.315201886930	737.209820700865	45.880199220438	542.957479094524	910.442371465655	97.857676919669	581.570308512419	820.275000060775	37.298863594522	617.765997954080	1028.559671653555	40.183056696490	609.188319688459	840.836003729287	72.162574578198	390.360199717793	907.816360075467	64.241679654397	305.314561893113	996.263169342978	121.306967671568	323.480686678747	1115.923541229080	63.691949097871	286.292897835634	801.044712107718	1106.408207021819	245.236263447312	836.588378557729	847.694414242409	233.346364306959	994.114924683310	1091.306291048108	818.836508888120	1213.333253026138	953.592079513711	802.723343231975	
